<svg width="40" height="40" viewBox="0 0 40 40" fill="none" xmlns="http://www.w3.org/2000/svg">
<path d="M16.7518 29.5305C10.5005 31.4053 10.5005 26.4059 8 25.781M25.5036 33.28V28.4431C25.5505 27.8472 25.4699 27.2481 25.2673 26.6856C25.0647 26.1232 24.7446 25.6103 24.3283 25.1811C28.2542 24.7436 32.38 23.2563 32.38 16.4322C32.3797 14.6873 31.7082 13.0092 30.5046 11.7454C31.0746 10.2187 31.0343 8.53122 30.3921 7.03349C30.3921 7.03349 28.9168 6.59605 25.5036 8.88324C22.638 8.10687 19.6174 8.10687 16.7518 8.88324C13.3386 6.59605 11.8633 7.03349 11.8633 7.03349C11.2211 8.53122 11.1808 10.2187 11.7508 11.7454C10.5382 13.0186 9.86604 14.7118 9.87538 16.4697C9.87538 23.2438 14.0012 24.7311 17.927 25.2186C17.5157 25.6435 17.1985 26.1502 16.996 26.7058C16.7935 27.2613 16.7103 27.8533 16.7518 28.4431V33.28" stroke="#BFD9D1" stroke-width="3" stroke-linecap="round" stroke-linejoin="round"/>
</svg>
