<svg width="40" height="40" viewBox="0 0 40 40" fill="none" xmlns="http://www.w3.org/2000/svg">
<path d="M25.167 16.6667C27.1561 16.6667 29.0638 17.4569 30.4703 18.8634C31.8768 20.2699 32.667 22.1776 32.667 24.1667V32.9167H27.667V24.1667C27.667 23.5036 27.4036 22.8678 26.9348 22.3989C26.4659 21.9301 25.83 21.6667 25.167 21.6667C24.504 21.6667 23.8681 21.9301 23.3992 22.3989C22.9304 22.8678 22.667 23.5036 22.667 24.1667V32.9167H17.667V24.1667C17.667 22.1776 18.4572 20.2699 19.8637 18.8634C21.2702 17.4569 23.1779 16.6667 25.167 16.6667Z" stroke="#BFD9D1" stroke-width="3" stroke-linecap="round" stroke-linejoin="round"/>
<path d="M13 18H8V33H13V18Z" stroke="#BFD9D1" stroke-width="3" stroke-linecap="round" stroke-linejoin="round"/>
<path d="M10.5 13C11.8807 13 13 11.8807 13 10.5C13 9.11929 11.8807 8 10.5 8C9.11929 8 8 9.11929 8 10.5C8 11.8807 9.11929 13 10.5 13Z" stroke="#BFD9D1" stroke-width="3" stroke-linecap="round" stroke-linejoin="round"/>
</svg>
